<svg width="16" height="15" viewBox="0 0 16 15" fill="none" xmlns="http://www.w3.org/2000/svg">
<path d="M9.90503 4.53125V3.04688C9.90503 2.65319 9.74864 2.27564 9.47027 1.99726C9.19189 1.71889 8.81434 1.5625 8.42065 1.5625H3.22534C2.83166 1.5625 2.4541 1.71889 2.17573 1.99726C1.89736 2.27564 1.74097 2.65319 1.74097 3.04688V11.9531C1.74097 12.3468 1.89736 12.7244 2.17573 13.0027C2.4541 13.2811 2.83166 13.4375 3.22534 13.4375H8.42065C8.81434 13.4375 9.19189 13.2811 9.47027 13.0027C9.74864 12.7244 9.90503 12.3468 9.90503 11.9531V10.4688" stroke="#F8385B" stroke-width="1.6" stroke-linecap="round" stroke-linejoin="round"/>
<path d="M6.19409 7.5H15.1003M15.1003 7.5L12.8738 5.27344M15.1003 7.5L12.8738 9.72656" stroke="#F8385B" stroke-width="1.6" stroke-linecap="round" stroke-linejoin="round"/>
</svg>
