<svg width="17" height="15" viewBox="0 0 17 15" fill="none" xmlns="http://www.w3.org/2000/svg">
<path d="M13.0062 4.48788C13.6038 4.48788 14.1768 4.72525 14.5994 5.14777C15.0219 5.5703 15.2593 6.14337 15.2593 6.74091C15.2593 7.33845 15.0219 7.91152 14.5994 8.33404C14.1768 8.75657 13.6038 8.99394 13.0062 8.99394M6.99815 4.48788V12.749C6.99815 12.9482 6.91903 13.1392 6.77818 13.28C6.63734 13.4209 6.44632 13.5 6.24714 13.5H5.49613C5.29695 13.5 5.10593 13.4209 4.96508 13.28C4.82424 13.1392 4.74512 12.9482 4.74512 12.749V8.99394" stroke="#6B6B6B" stroke-width="1.6" stroke-linecap="round" stroke-linejoin="round"/>
<path d="M8.50007 4.48785L11.8976 1.65654C11.9964 1.57431 12.1165 1.52193 12.2439 1.50552C12.3713 1.48911 12.5008 1.50937 12.6171 1.56391C12.7335 1.61845 12.8319 1.70502 12.9007 1.81347C12.9696 1.92192 13.0062 2.04776 13.0061 2.17624V11.3055C13.0062 11.434 12.9696 11.5599 12.9007 11.6683C12.8319 11.7768 12.7335 11.8633 12.6171 11.9179C12.5008 11.9724 12.3713 11.9927 12.2439 11.9763C12.1165 11.9598 11.9964 11.9075 11.8976 11.8252L8.50007 8.99392H2.49198C2.2928 8.99392 2.10177 8.9148 1.96093 8.77395C1.82009 8.63311 1.74097 8.44209 1.74097 8.24291V5.23887C1.74097 5.03968 1.82009 4.84866 1.96093 4.70782C2.10177 4.56698 2.2928 4.48785 2.49198 4.48785H8.50007Z" stroke="#6B6B6B" stroke-width="1.6" stroke-linecap="round" stroke-linejoin="round"/>
</svg>
