<svg width="15" height="17" viewBox="0 0 15 17" fill="none" xmlns="http://www.w3.org/2000/svg">
<path d="M7.74097 2.36667C6.91585 2.36667 6.12453 2.68976 5.54108 3.26487C4.95763 3.83999 4.62986 4.62 4.62986 5.43334C4.62986 6.24667 4.95763 7.02668 5.54108 7.6018C6.12453 8.17691 6.91585 8.5 7.74097 8.5C8.56608 8.5 9.35741 8.17691 9.94086 7.6018C10.5243 7.02668 10.8521 6.24667 10.8521 5.43334C10.8521 4.62 10.5243 3.83999 9.94086 3.26487C9.35741 2.68976 8.56608 2.36667 7.74097 2.36667ZM3.0743 5.43334C3.0743 4.21334 3.56597 3.04331 4.44114 2.18064C5.31631 1.31798 6.50329 0.833336 7.74097 0.833336C8.97864 0.833336 10.1656 1.31798 11.0408 2.18064C11.916 3.04331 12.4076 4.21334 12.4076 5.43334C12.4076 6.65333 11.916 7.82336 11.0408 8.68603C10.1656 9.54869 8.97864 10.0333 7.74097 10.0333C6.50329 10.0333 5.31631 9.54869 4.44114 8.68603C3.56597 7.82336 3.0743 6.65333 3.0743 5.43334ZM4.62986 13.1C4.01102 13.1 3.41752 13.3423 2.97994 13.7737C2.54236 14.205 2.29652 14.79 2.29652 15.4C2.29652 15.6033 2.21458 15.7983 2.06872 15.9421C1.92285 16.0859 1.72502 16.1667 1.51874 16.1667C1.31247 16.1667 1.11463 16.0859 0.968773 15.9421C0.822911 15.7983 0.740967 15.6033 0.740967 15.4C0.740967 14.3833 1.15069 13.4083 1.88 12.6894C2.6093 11.9705 3.59846 11.5667 4.62986 11.5667H10.8521C11.8835 11.5667 12.8726 11.9705 13.6019 12.6894C14.3312 13.4083 14.741 14.3833 14.741 15.4C14.741 15.6033 14.659 15.7983 14.5132 15.9421C14.3673 16.0859 14.1695 16.1667 13.9632 16.1667C13.7569 16.1667 13.5591 16.0859 13.4132 15.9421C13.2674 15.7983 13.1854 15.6033 13.1854 15.4C13.1854 14.79 12.9396 14.205 12.502 13.7737C12.0644 13.3423 11.4709 13.1 10.8521 13.1H4.62986Z" fill="#6B6B6B"/>
</svg>
