<svg width="13" height="15" viewBox="0 0 13 15" fill="none" xmlns="http://www.w3.org/2000/svg">
<path d="M0.740967 12.75V11.25H2.24097V6C2.24097 4.9625 2.55347 4.0405 3.17847 3.234C3.80347 2.4275 4.61597 1.8995 5.61597 1.65V1.125C5.61597 0.812502 5.72547 0.546752 5.94447 0.327752C6.16347 0.108752 6.42897 -0.000498292 6.74097 1.70843e-06C7.05347 1.70843e-06 7.31922 0.109502 7.53822 0.328502C7.75722 0.547502 7.86647 0.813002 7.86597 1.125V1.65C8.86597 1.9 9.67847 2.42825 10.3035 3.23475C10.9285 4.04125 11.241 4.963 11.241 6V11.25H12.741V12.75H0.740967ZM6.74097 15C6.32847 15 5.97522 14.853 5.68122 14.559C5.38722 14.265 5.24047 13.912 5.24097 13.5H8.24097C8.24097 13.9125 8.09397 14.2657 7.79997 14.5597C7.50597 14.8537 7.15297 15.0005 6.74097 15ZM3.74097 11.25H9.74097V6C9.74097 5.175 9.44722 4.46875 8.85972 3.88125C8.27222 3.29375 7.56597 3 6.74097 3C5.91597 3 5.20972 3.29375 4.62222 3.88125C4.03472 4.46875 3.74097 5.175 3.74097 6V11.25Z" fill="#6B6B6B"/>
</svg>
