<svg width="24" height="20" viewBox="0 0 24 20" fill="none" xmlns="http://www.w3.org/2000/svg">
<path d="M18.2963 4H16.2831L15.3056 2.445C15.2192 2.3079 15.1021 2.19553 14.9648 2.11789C14.8275 2.04025 14.6742 1.99976 14.5185 2H9.48148C9.32582 1.99976 9.17252 2.04025 9.0352 2.11789C8.89789 2.19553 8.78084 2.3079 8.69444 2.445L7.71616 4H5.7037C5.11925 4 4.55872 4.24583 4.14545 4.68342C3.73218 5.121 3.5 5.7145 3.5 6.33333V15.6667C3.5 16.2855 3.73218 16.879 4.14545 17.3166C4.55872 17.7542 5.11925 18 5.7037 18H18.2963C18.5857 18 18.8723 17.9396 19.1396 17.8224C19.407 17.7051 19.6499 17.5333 19.8545 17.3166C20.0592 17.0999 20.2215 16.8427 20.3323 16.5596C20.443 16.2765 20.5 15.9731 20.5 15.6667V6.33333C20.5 6.02692 20.443 5.7235 20.3323 5.44041C20.2215 5.15731 20.0592 4.90009 19.8545 4.68342C19.6499 4.46675 19.407 4.29488 19.1396 4.17762C18.8723 4.06035 18.5857 4 18.2963 4ZM18.6111 15.6667C18.6111 15.7551 18.5779 15.8399 18.5189 15.9024C18.4599 15.9649 18.3798 16 18.2963 16H5.7037C5.62021 16 5.54014 15.9649 5.4811 15.9024C5.42206 15.8399 5.38889 15.7551 5.38889 15.6667V6.33333C5.38889 6.24493 5.42206 6.16014 5.4811 6.09763C5.54014 6.03512 5.62021 6 5.7037 6H8.22222C8.37788 6.00025 8.53119 5.95975 8.6685 5.88211C8.80581 5.80447 8.92287 5.69211 9.00926 5.555L9.98676 4H14.0125L14.9907 5.555C15.0771 5.69211 15.1942 5.80447 15.3315 5.88211C15.4688 5.95975 15.6221 6.00025 15.7778 6H18.2963C18.3798 6 18.4599 6.03512 18.5189 6.09763C18.5779 6.16014 18.6111 6.24493 18.6111 6.33333V15.6667ZM12 6.66667C11.2528 6.66667 10.5224 6.90126 9.90118 7.34079C9.27993 7.78032 8.79572 8.40503 8.50979 9.13593C8.22386 9.86684 8.14905 10.6711 8.29481 11.447C8.44058 12.223 8.80038 12.9357 9.32871 13.4951C9.85704 14.0545 10.5302 14.4355 11.263 14.5898C11.9958 14.7441 12.7554 14.6649 13.4457 14.3622C14.136 14.0594 14.726 13.5467 15.1411 12.8889C15.5562 12.2312 15.7778 11.4578 15.7778 10.6667C15.7767 9.60614 15.3784 8.58937 14.6701 7.83946C13.9619 7.08955 13.0016 6.66777 12 6.66667ZM12 12.6667C11.6264 12.6667 11.2612 12.5494 10.9506 12.3296C10.64 12.1098 10.3979 11.7975 10.2549 11.432C10.1119 11.0666 10.0745 10.6644 10.1474 10.2765C10.2203 9.88852 10.4002 9.53216 10.6644 9.25245C10.9285 8.97275 11.2651 8.78227 11.6315 8.7051C11.9979 8.62793 12.3777 8.66753 12.7228 8.81891C13.068 8.97028 13.363 9.22663 13.5706 9.55553C13.7781 9.88443 13.8889 10.2711 13.8889 10.6667C13.8889 11.1971 13.6899 11.7058 13.3356 12.0809C12.9814 12.456 12.501 12.6667 12 12.6667Z" fill="#3873E9"/>
</svg>
