<svg width="14" height="14" viewBox="0 0 14 14" fill="none" xmlns="http://www.w3.org/2000/svg">
<path d="M1.02164 2.03802C0.884143 1.52302 1.41314 1.08302 1.89464 1.31252L12.6431 6.43702C13.1181 6.66302 13.1181 7.33902 12.6431 7.56502L1.89514 12.69C1.41364 12.919 0.884643 12.479 1.02214 11.964L2.35014 7.00102L1.02164 2.03802ZM3.02564 7.37602L1.81664 11.896L12.0841 7.00102L1.81664 2.10602L3.02564 6.62602H8.62514C8.7246 6.62602 8.81998 6.66553 8.89031 6.73586C8.96063 6.80619 9.00014 6.90157 9.00014 7.00102C9.00014 7.10048 8.96063 7.19586 8.89031 7.26619C8.81998 7.33652 8.7246 7.37602 8.62514 7.37602H3.02564Z" fill="#3873E9"/>
</svg>
