<svg width="15" height="15" viewBox="0 0 15 15" fill="none" xmlns="http://www.w3.org/2000/svg">
<path d="M7.04097 8.2C7.04097 8.01435 7.11472 7.8363 7.24599 7.70503C7.37727 7.57375 7.55532 7.5 7.74097 7.5C7.92662 7.5 8.10467 7.57375 8.23594 7.70503C8.36722 7.8363 8.44097 8.01435 8.44097 8.2V10.3C8.44097 10.4857 8.36722 10.6637 8.23594 10.795C8.10467 10.9263 7.92662 11 7.74097 11C7.55532 11 7.37727 10.9263 7.24599 10.795C7.11472 10.6637 7.04097 10.4857 7.04097 10.3V8.2ZM7.74097 4.35C7.46249 4.35 7.19542 4.46062 6.9985 4.65754C6.80159 4.85445 6.69097 5.12152 6.69097 5.4C6.69097 5.67848 6.80159 5.94555 6.9985 6.14246C7.19542 6.33938 7.46249 6.45 7.74097 6.45C8.01944 6.45 8.28652 6.33938 8.48343 6.14246C8.68034 5.94555 8.79097 5.67848 8.79097 5.4C8.79097 5.12152 8.68034 4.85445 8.48343 4.65754C8.28652 4.46062 8.01944 4.35 7.74097 4.35ZM0.740967 7.5C0.740967 5.64348 1.47846 3.86301 2.79122 2.55025C4.10397 1.2375 5.88445 0.5 7.74097 0.5C9.59748 0.5 11.378 1.2375 12.6907 2.55025C14.0035 3.86301 14.741 5.64348 14.741 7.5C14.741 9.35651 14.0035 11.137 12.6907 12.4497C11.378 13.7625 9.59748 14.5 7.74097 14.5C5.88445 14.5 4.10397 13.7625 2.79122 12.4497C1.47846 11.137 0.740967 9.35651 0.740967 7.5ZM7.74097 1.9C6.25575 1.9 4.83137 2.49 3.78117 3.5402C2.73097 4.59041 2.14097 6.01479 2.14097 7.5C2.14097 8.98521 2.73097 10.4096 3.78117 11.4598C4.83137 12.51 6.25575 13.1 7.74097 13.1C9.22618 13.1 10.6506 12.51 11.7008 11.4598C12.751 10.4096 13.341 8.98521 13.341 7.5C13.341 6.01479 12.751 4.59041 11.7008 3.5402C10.6506 2.49 9.22618 1.9 7.74097 1.9Z" fill="#6B6B6B"/>
</svg>
