<svg width="18" height="22" viewBox="0 0 18 22" fill="none" xmlns="http://www.w3.org/2000/svg">
<path d="M8.77992 5.6375C8.80002 5.59627 8.8313 5.56151 8.8702 5.5372C8.9091 5.51289 8.95405 5.5 8.99992 5.5C9.04579 5.5 9.09074 5.51289 9.12963 5.5372C9.16853 5.56151 9.19982 5.59627 9.21992 5.6375L10.0917 7.40438C10.1091 7.44012 10.135 7.47107 10.1671 7.49455C10.1992 7.51802 10.2366 7.53333 10.2759 7.53912L12.2284 7.82238C12.4278 7.85125 12.5089 8.09738 12.3632 8.239L10.9524 9.61538C10.924 9.64316 10.9027 9.67747 10.8905 9.71532C10.8783 9.75318 10.8754 9.79344 10.8823 9.83263L11.215 11.7769C11.2225 11.8218 11.2173 11.8679 11.2 11.91C11.1828 11.9521 11.1541 11.9885 11.1172 12.0152C11.0804 12.0419 11.0368 12.0579 10.9914 12.0612C10.946 12.0645 10.9006 12.0551 10.8603 12.034L9.11404 11.1155C9.07903 11.0972 9.04011 11.0876 9.00061 11.0876C8.9611 11.0876 8.92218 11.0972 8.88717 11.1155L7.14092 12.034C7.10062 12.0547 7.05537 12.0638 7.0102 12.0603C6.96504 12.0568 6.92173 12.0408 6.8851 12.0142C6.84847 11.9875 6.81995 11.9512 6.80273 11.9093C6.7855 11.8674 6.78025 11.8216 6.78754 11.7769L7.12029 9.83263C7.12731 9.79355 7.12472 9.75336 7.11274 9.71551C7.10077 9.67766 7.07976 9.6433 7.05154 9.61538L5.63529 8.239C5.60285 8.20715 5.57992 8.16689 5.56908 8.12274C5.55823 8.07859 5.5599 8.03229 5.57389 7.98904C5.58788 7.94578 5.61364 7.90728 5.64829 7.87784C5.68293 7.8484 5.72509 7.8292 5.77004 7.82238L7.72254 7.53912C7.76189 7.53333 7.79923 7.51802 7.83134 7.49455C7.86344 7.47107 7.88934 7.44012 7.90679 7.40438L8.77992 5.6375Z" fill="#3873E9"/>
<path d="M0.75 2.75C0.75 2.02065 1.03973 1.32118 1.55546 0.805456C2.07118 0.289731 2.77065 0 3.5 0L14.5 0C15.2293 0 15.9288 0.289731 16.4445 0.805456C16.9603 1.32118 17.25 2.02065 17.25 2.75V21.3125C17.2499 21.4369 17.2161 21.5589 17.1522 21.6655C17.0883 21.7722 16.9966 21.8595 16.887 21.9182C16.7774 21.9769 16.6539 22.0048 16.5296 21.9989C16.4054 21.9929 16.2852 21.9534 16.1816 21.8845L9 18.0139L1.81837 21.8845C1.71484 21.9534 1.59457 21.9929 1.47035 21.9989C1.34613 22.0048 1.22263 21.9769 1.113 21.9182C1.00337 21.8595 0.911706 21.7722 0.847782 21.6655C0.783858 21.5589 0.750064 21.4369 0.75 21.3125V2.75ZM3.5 1.375C3.13533 1.375 2.78559 1.51987 2.52773 1.77773C2.26987 2.03559 2.125 2.38533 2.125 2.75V20.0282L8.61912 16.6155C8.73196 16.5404 8.86447 16.5004 9 16.5004C9.13553 16.5004 9.26804 16.5404 9.38088 16.6155L15.875 20.0282V2.75C15.875 2.38533 15.7301 2.03559 15.4723 1.77773C15.2144 1.51987 14.8647 1.375 14.5 1.375H3.5Z" fill="#3873E9"/>
</svg>
