<svg width="15" height="15" viewBox="0 0 15 15" fill="none" xmlns="http://www.w3.org/2000/svg">
<path d="M7.5 0C11.6423 0 15 3.35775 15 7.5C15 11.6422 11.6423 15 7.5 15C6.13363 15.0021 4.7929 14.6291 3.624 13.9215L1.35001 14.5905C1.21944 14.6289 1.08095 14.6314 0.949069 14.5978C0.817192 14.5642 0.69681 14.4957 0.600576 14.3994C0.504342 14.3032 0.435812 14.1828 0.40219 14.0509C0.368567 13.9191 0.371095 13.7806 0.409506 13.65L1.07851 11.376C0.371225 10.207 -0.00181053 8.86632 6.60715e-06 7.5C6.60715e-06 3.35775 3.35775 0 7.5 0ZM7.5 1.5C6.42572 1.4998 5.3711 1.78804 4.44625 2.33461C3.52141 2.88118 2.76027 3.66603 2.24233 4.6072C1.72438 5.54838 1.46863 6.61135 1.50177 7.68512C1.53492 8.75888 1.85575 9.80406 2.43076 10.7115C2.60101 10.9792 2.65951 11.3167 2.56351 11.6415L2.23276 12.7672L3.35851 12.4365C3.68325 12.3405 4.02075 12.399 4.2885 12.5692C5.07475 13.0671 5.96602 13.3752 6.89186 13.4693C7.8177 13.5633 8.75273 13.4407 9.62303 13.1112C10.4933 12.7816 11.275 12.2542 11.9064 11.5705C12.5377 10.8868 13.0014 10.0656 13.2607 9.17182C13.52 8.27807 13.5678 7.33626 13.4004 6.42083C13.2331 5.5054 12.855 4.64145 12.2962 3.89728C11.7375 3.15311 11.0132 2.54912 10.1808 2.13306C9.3484 1.717 8.43061 1.50027 7.5 1.5ZM4.875 6.375C5.17337 6.375 5.45952 6.49352 5.6705 6.7045C5.88148 6.91548 6 7.20163 6 7.5C6 7.79836 5.88148 8.08451 5.6705 8.29549C5.45952 8.50647 5.17337 8.625 4.875 8.625C4.57664 8.625 4.29049 8.50647 4.07951 8.29549C3.86853 8.08451 3.75 7.79836 3.75 7.5C3.75 7.20163 3.86853 6.91548 4.07951 6.7045C4.29049 6.49352 4.57664 6.375 4.875 6.375ZM10.125 6.375C10.4234 6.375 10.7095 6.49352 10.9205 6.7045C11.1315 6.91548 11.25 7.20163 11.25 7.5C11.25 7.79836 11.1315 8.08451 10.9205 8.29549C10.7095 8.50647 10.4234 8.625 10.125 8.625C9.82663 8.625 9.54049 8.50647 9.32951 8.29549C9.11853 8.08451 9 7.79836 9 7.5C9 7.20163 9.11853 6.91548 9.32951 6.7045C9.54049 6.49352 9.82663 6.375 10.125 6.375Z" fill="#3873E9"/>
</svg>
