<svg width="19" height="11" viewBox="0 0 19 11" fill="none" xmlns="http://www.w3.org/2000/svg">
<path d="M1.14722 0.947065C1.39335 0.701009 1.72713 0.562782 2.07516 0.562782C2.42319 0.562782 2.75697 0.701009 3.0031 0.947065L9.49997 7.44394L15.9968 0.947065C16.2444 0.707982 16.5759 0.575689 16.9201 0.578679C17.2642 0.58167 17.5934 0.719704 17.8367 0.963053C18.0801 1.2064 18.2181 1.53559 18.2211 1.87973C18.2241 2.22386 18.0918 2.5554 17.8527 2.80294L10.4279 10.2278C10.1818 10.4738 9.848 10.612 9.49997 10.612C9.15194 10.612 8.81816 10.4738 8.57204 10.2278L1.14722 2.80294C0.901166 2.55681 0.762939 2.22303 0.762939 1.875C0.762939 1.52697 0.901166 1.19319 1.14722 0.947065Z" fill="#A8A8A8"/>
</svg>
