<svg width="15" height="13" viewBox="0 0 15 13" fill="none" xmlns="http://www.w3.org/2000/svg">
<path d="M7.74213 1.07629C8.54182 0.357042 9.58532 -0.0271465 10.6582 0.00267325C11.7311 0.032493 12.7519 0.474056 13.5108 1.23662C14.269 1.99834 14.7085 3.02261 14.7392 4.09947C14.77 5.17633 14.3895 6.22421 13.6759 7.0283L7.74073 13L1.80691 7.0283C1.09248 6.22379 0.711695 5.17502 0.742724 4.09729C0.773754 3.01956 1.21424 1.99465 1.97376 1.23299C2.73328 0.471319 3.7542 0.0306832 4.82691 0.00154289C5.89963 -0.0275974 6.94275 0.356969 7.74213 1.07629ZM12.5197 2.23026C12.0141 1.72263 11.3343 1.42866 10.6197 1.40865C9.90523 1.38864 9.21018 1.64412 8.6772 2.12267L7.74283 2.96512L6.80775 2.12338C6.27699 1.64652 5.58533 1.39076 4.87353 1.40815C4.16173 1.42554 3.48326 1.71476 2.97619 2.21697C2.46912 2.71918 2.17155 3.39663 2.14404 4.11147C2.11652 4.82632 2.36112 5.52484 2.82807 6.0649L7.74143 11.0092L12.6548 6.0656C13.1198 5.52792 13.3644 4.83303 13.3393 4.12119C13.3143 3.40935 13.0213 2.73357 12.5197 2.23026Z" fill="#6B6B6B"/>
</svg>
