<svg width="9" height="11" viewBox="0 0 9 11" fill="none" xmlns="http://www.w3.org/2000/svg">
<path fill-rule="evenodd" clip-rule="evenodd" d="M4.50003 9.71148L4.83056 9.33905C5.20561 8.90952 5.54294 8.502 5.84308 8.11438L6.09084 7.78752C7.12537 6.39367 7.64289 5.28738 7.64289 4.46971C7.64289 2.72438 6.23594 1.30957 4.50003 1.30957C2.76413 1.30957 1.35718 2.72438 1.35718 4.46971C1.35718 5.28738 1.8747 6.39367 2.90923 7.78752L3.15699 8.11438C3.58517 8.66301 4.03315 9.19538 4.50003 9.71148Z" stroke="#3873E9" stroke-linecap="round" stroke-linejoin="round"/>
<path d="M4.49995 5.76199C5.22318 5.76199 5.80948 5.1757 5.80948 4.45247C5.80948 3.72924 5.22318 3.14294 4.49995 3.14294C3.77672 3.14294 3.19043 3.72924 3.19043 4.45247C3.19043 5.1757 3.77672 5.76199 4.49995 5.76199Z" stroke="#3873E9" stroke-linecap="round" stroke-linejoin="round"/>
</svg>
