<svg width="157" height="47" viewBox="0 0 157 47" fill="none" xmlns="http://www.w3.org/2000/svg">
<path d="M4.88 43.272C4.32533 42.8027 3.94133 42.2267 3.728 41.544C3.51467 40.8613 3.408 40.1147 3.408 39.304C3.408 38.792 3.42933 38.28 3.472 37.768C3.55733 37.2133 3.64267 36.6587 3.728 36.104C4.06933 34.3973 4.64533 32.3707 5.456 30.024C6.30933 27.6773 7.26933 25.224 8.336 22.664C9.44533 20.104 10.5547 17.6293 11.664 15.24C12.816 12.808 13.84 10.6747 14.736 8.84C15.6747 6.96267 16.3787 5.576 16.848 4.68C17.0187 4.33867 17.168 4.01867 17.296 3.72C17.4667 3.42133 17.6373 3.144 17.808 2.888L15.504 3.208C13.584 3.464 11.6 3.86933 9.552 4.424C7.54667 4.97866 5.73333 5.704 4.112 6.6C2.53333 7.45333 1.38133 8.49866 0.656 9.736C0.613333 9.864 0.528 9.928 0.4 9.928C0.314667 9.928 0.250667 9.84266 0.208 9.672C0.122667 9.50133 0.101333 9.30933 0.144 9.096C0.570667 7.98667 1.104 6.92 1.744 5.896C2.384 4.872 3.00267 4.06133 3.6 3.464C4.53867 2.48266 5.81867 1.77866 7.44 1.352C9.06133 0.925331 10.7253 0.647998 12.432 0.519997C14.1813 0.391998 15.6747 0.327999 16.912 0.327999H29.52C32.464 0.327999 34.8107 0.775998 36.56 1.672C38.352 2.568 39.632 3.76266 40.4 5.256C41.168 6.70667 41.4667 8.264 41.296 9.928C41.1253 11.72 40.6133 13.2773 39.76 14.6C38.9067 15.9227 37.84 17.0533 36.56 17.992C35.3227 18.888 34.0213 19.6133 32.656 20.168C31.3333 20.68 30.096 21.064 28.944 21.32C32.528 22.0027 35.088 23.176 36.624 24.84C38.16 26.504 38.928 28.488 38.928 30.792C38.928 32.6267 38.48 34.3547 37.584 35.976C36.7307 37.5547 35.5573 38.984 34.064 40.264C32.784 41.3733 31.0987 42.376 29.008 43.272C26.9173 44.1253 24.656 44.808 22.224 45.32C19.792 45.832 17.3813 46.088 14.992 46.088C12.9867 46.088 11.088 45.8533 9.296 45.384C7.504 44.9573 6.032 44.2533 4.88 43.272ZM12.688 43.272C13.2853 43.3573 13.8827 43.4213 14.48 43.464C15.0773 43.5067 15.6747 43.528 16.272 43.528C18.3627 43.528 20.4107 43.2293 22.416 42.632C24.4213 41.992 26.1707 40.9893 27.664 39.624C29.2 38.2587 30.288 36.4667 30.928 34.248C31.312 33.0107 31.504 31.752 31.504 30.472C31.504 28.4667 30.992 26.6747 29.968 25.096C28.9867 23.4747 27.4293 22.536 25.296 22.28C24.8267 22.408 24.1227 22.5573 23.184 22.728C22.2453 22.8987 21.264 23.048 20.24 23.176C19.216 23.304 18.3413 23.368 17.616 23.368C16.9333 23.368 16.592 23.2187 16.592 22.92C16.592 22.664 16.784 22.3653 17.168 22.024C17.552 21.64 17.9787 21.32 18.448 21.064C18.9173 20.7653 19.3013 20.5947 19.6 20.552C20.368 20.424 21.264 20.36 22.288 20.36C22.8427 20.36 23.3973 20.3813 23.952 20.424C24.5493 20.4667 25.168 20.5307 25.808 20.616C27.1733 20.1893 28.304 19.6133 29.2 18.888C30.096 18.1627 30.864 17.48 31.504 16.84C32.528 15.7733 33.3173 14.5573 33.872 13.192C34.4267 11.784 34.704 10.4187 34.704 9.096C34.704 7.34666 34.2773 6.00266 33.424 5.064C32.6133 4.08267 31.5253 3.37867 30.16 2.952C28.7947 2.52533 27.3227 2.29066 25.744 2.248C24.976 3.272 24.1653 4.488 23.312 5.896C22.5013 7.26133 21.7333 8.66933 21.008 10.12C20.2827 11.5707 19.6427 12.9147 19.088 14.152C17.8933 16.712 16.6347 19.5067 15.312 22.536C14.032 25.5653 12.9653 28.5093 12.112 31.368C11.6853 32.6907 11.2587 34.12 10.832 35.656C10.448 37.1493 10.256 38.4933 10.256 39.688C10.256 40.6267 10.4267 41.416 10.768 42.056C11.1093 42.696 11.7493 43.1013 12.688 43.272ZM60.8835 45.384C59.5608 45.384 58.6435 44.872 58.1315 43.848C57.6622 42.824 57.4275 41.5653 57.4275 40.072C57.4275 38.7067 57.5555 37.3627 57.8115 36.04C57.9395 35.4427 58.0675 34.8453 58.1955 34.248C58.3662 33.608 58.5582 32.9467 58.7715 32.264C58.0462 33.5867 57.2782 34.8667 56.4675 36.104C55.6995 37.3413 54.9102 38.4293 54.0995 39.368C52.7342 41.032 51.2835 42.4187 49.7475 43.528C48.2542 44.6373 46.7608 45.192 45.2675 45.192C44.0728 45.192 43.0488 44.7653 42.1955 43.912C41.3848 43.016 40.9795 41.48 40.9795 39.304C40.9795 37.0853 41.3635 34.8027 42.1315 32.456C42.8995 30.1093 43.9662 27.9333 45.3315 25.928C46.7395 23.88 48.3822 22.2373 50.2595 21C52.1795 19.7627 54.2702 19.144 56.5315 19.144C57.2568 19.144 58.0462 19.2507 58.8995 19.464C59.7528 19.6773 60.5422 20.0827 61.2675 20.68C61.9928 21.2347 62.4835 22.024 62.7395 23.048C62.7822 22.9627 62.8248 22.8987 62.8675 22.856C62.9528 22.8133 63.0168 22.7707 63.0595 22.728C63.6568 21.7893 64.3395 21 65.1075 20.36C65.8755 19.72 66.7288 19.4 67.6675 19.4C68.1368 19.4 68.7982 19.4213 69.6515 19.464C70.5048 19.5067 71.1235 19.5067 71.5075 19.464C71.2942 19.6347 70.9955 19.976 70.6115 20.488C70.2702 21 69.9502 21.5333 69.6515 22.088C69.3528 22.6 69.1182 23.0053 68.9475 23.304C67.7955 25.5227 66.7502 27.72 65.8115 29.896C64.8728 32.072 64.1475 34.1627 63.6355 36.168C63.5075 36.5947 63.4222 37 63.3795 37.384C63.3368 37.7253 63.3155 38.0667 63.3155 38.408C63.3155 39.5173 63.6782 40.072 64.4035 40.072C65.0862 40.072 65.9395 39.6453 66.9635 38.792C68.4568 37.5973 69.7582 36.104 70.8675 34.312C72.0195 32.52 73.0222 30.792 73.8755 29.128C74.0462 28.8293 74.1955 28.68 74.3235 28.68C74.5795 28.68 74.7075 29.0427 74.7075 29.768C74.7075 30.1093 74.6435 30.4933 74.5155 30.92C74.4302 31.3467 74.2808 31.752 74.0675 32.136C73.4702 33.16 72.6808 34.4187 71.6995 35.912C70.7608 37.4053 69.6942 38.8773 68.4995 40.328C67.3048 41.736 66.0462 42.9307 64.7235 43.912C63.4435 44.8933 62.1635 45.384 60.8835 45.384ZM48.1475 39.816C48.2755 39.8587 48.4675 39.88 48.7235 39.88C49.5342 39.88 50.4088 39.5387 51.3475 38.856C52.2862 38.1733 53.2248 37.2987 54.1635 36.232C55.1022 35.1227 55.9342 34.0133 56.6595 32.904C58.5368 29.9173 59.9235 27.6773 60.8195 26.184C61.7155 24.6907 62.2275 23.8373 62.3555 23.624C62.1422 22.8987 61.7582 22.3653 61.2035 22.024C60.6915 21.6827 60.0728 21.512 59.3475 21.512C58.4088 21.512 57.4062 21.768 56.3395 22.28C55.3155 22.792 54.4408 23.4107 53.7155 24.136C52.6062 25.2453 51.5395 26.6747 50.5155 28.424C49.5342 30.1733 48.7235 31.9013 48.0835 33.608C47.4862 35.3147 47.1875 36.744 47.1875 37.896C47.1875 38.9627 47.5075 39.6027 48.1475 39.816ZM82.1735 45.448C80.8082 45.448 79.8268 44.872 79.2295 43.72C78.7602 42.696 78.5255 41.48 78.5255 40.072C78.5255 38.4933 78.7602 36.744 79.2295 34.824C79.6988 32.904 80.3388 30.9413 81.1495 28.936C81.4482 28.2107 81.8322 27.2933 82.3015 26.184C82.8135 25.0747 83.4108 23.9867 84.0935 22.92C83.4962 23.432 82.7922 23.8587 81.9815 24.2C81.1708 24.4987 80.3815 24.648 79.6135 24.648C79.0162 24.648 78.5255 24.5627 78.1415 24.392C77.8002 25.0747 77.2455 26.184 76.4775 27.72C75.7095 29.256 74.6855 31.0693 73.4055 33.16C73.2775 33.3733 73.1495 33.3733 73.0215 33.16C72.9362 32.904 72.8935 32.5627 72.8935 32.136C72.8935 31.7947 72.9362 31.432 73.0215 31.048C73.1068 30.664 73.2348 30.3013 73.4055 29.96C73.8322 29.1493 74.2588 28.3173 74.6855 27.464C75.1122 26.568 75.4962 25.7787 75.8375 25.096C76.1788 24.4133 76.3708 23.9867 76.4135 23.816C75.6455 23.432 75.0695 22.8987 74.6855 22.216C74.3015 21.4907 74.1095 20.7867 74.1095 20.104C74.1095 19.4213 74.2588 18.8027 74.5575 18.248C74.8988 17.6933 75.3895 17.2667 76.0295 16.968C76.4135 16.84 76.7762 16.776 77.1175 16.776C78.0562 16.776 78.8242 17.0747 79.4215 17.672C79.3788 17.8427 79.3362 18.0347 79.2935 18.248C79.2935 18.4187 79.2935 18.6107 79.2935 18.824C79.2935 20.1467 79.8268 21.128 80.8935 21.768C81.9602 22.408 83.1122 22.6427 84.3495 22.472C84.9468 21.6187 85.6295 20.872 86.3975 20.232C87.1655 19.592 87.9975 19.272 88.8935 19.272C89.3628 19.272 90.0242 19.2933 90.8775 19.336C91.7735 19.3787 92.4135 19.3787 92.7975 19.336C92.5415 19.5067 92.2428 19.848 91.9015 20.36C91.5602 20.872 91.2402 21.4053 90.9415 21.96C90.6428 22.5147 90.4082 22.9413 90.2375 23.24C89.0855 25.4587 88.0188 27.6773 87.0375 29.896C86.0562 32.072 85.3095 34.1627 84.7975 36.168C84.7122 36.552 84.6268 36.9147 84.5415 37.256C84.4988 37.5547 84.4775 37.8747 84.4775 38.216C84.4775 39.496 84.9042 40.136 85.7575 40.136C86.3548 40.136 87.2082 39.7093 88.3175 38.856C89.2988 38.0453 90.1735 37.1493 90.9415 36.168C91.7948 35.0587 92.6055 33.864 93.3735 32.584C94.1415 31.304 94.8028 30.1307 95.3575 29.064C95.5708 28.7227 95.7202 28.552 95.8055 28.552C96.0615 28.552 96.1895 28.936 96.1895 29.704C96.1895 30.0027 96.1468 30.3653 96.0615 30.792C95.9762 31.2187 95.8268 31.624 95.6135 32.008C94.9735 33.0747 94.2482 34.248 93.4375 35.528C92.6268 36.7653 91.7948 37.9813 90.9415 39.176C90.3868 39.944 89.5975 40.8187 88.5735 41.8C87.5922 42.7813 86.5255 43.6347 85.3735 44.36C84.2642 45.0853 83.1975 45.448 82.1735 45.448ZM98.235 45.384C96.9977 45.384 96.059 44.8933 95.419 43.912C95.1203 43.4427 94.907 42.888 94.779 42.248C94.651 41.608 94.587 40.9467 94.587 40.264C94.587 39.5813 94.6297 38.8987 94.715 38.216C94.8003 37.4907 94.907 36.7867 95.035 36.104C95.2483 34.9947 95.483 33.992 95.739 33.096C96.0377 32.1573 96.3363 31.2613 96.635 30.408V30.344C96.2937 30.984 95.867 31.688 95.355 32.456C94.843 33.1813 94.4803 33.7147 94.267 34.056C93.9683 34.5253 93.7337 34.76 93.563 34.76C93.3923 34.76 93.307 34.568 93.307 34.184C93.307 33.3307 93.563 32.392 94.075 31.368C94.4163 30.6853 94.8857 29.8107 95.483 28.744C96.0803 27.6347 96.699 26.44 97.339 25.16C97.979 23.88 98.5337 22.6427 99.003 21.448H94.715C94.5017 21.448 94.459 21.2773 94.587 20.936C94.715 20.5947 94.907 20.2747 95.163 19.976C95.419 19.6347 95.611 19.464 95.739 19.464H100.603C101.072 18.3547 101.606 17.16 102.203 15.88C102.843 14.6 103.547 13.4053 104.315 12.296C105.126 11.144 106 10.2053 106.939 9.48C107.878 8.75467 108.88 8.392 109.947 8.392C110.416 8.392 110.992 8.392 111.675 8.392C112.4 8.392 112.848 8.37067 113.019 8.328C112.123 8.92533 111.078 10.12 109.883 11.912C108.688 13.6613 107.387 16.1787 105.979 19.464H112.443C112.571 19.464 112.528 19.6347 112.315 19.976C112.102 20.2747 111.824 20.5947 111.483 20.936C111.184 21.2773 110.886 21.448 110.587 21.448H105.083C104.528 22.856 103.91 24.392 103.227 26.056C102.587 27.72 101.99 29.3627 101.435 30.984C100.923 32.5627 100.539 34.0133 100.283 35.336C100.112 36.1467 100.027 36.8933 100.027 37.576C100.027 39.1973 100.539 40.008 101.563 40.008C102.246 40.008 103.056 39.6667 103.995 38.984C104.934 38.3013 105.872 37.3627 106.811 36.168C107.664 35.0587 108.475 33.864 109.243 32.584C110.054 31.304 110.736 30.1307 111.291 29.064C111.462 28.7653 111.611 28.616 111.739 28.616C111.995 28.616 112.123 28.9573 112.123 29.64C112.123 29.9813 112.059 30.3867 111.931 30.856C111.846 31.2827 111.675 31.7093 111.419 32.136C110.822 33.16 110.118 34.2907 109.307 35.528C108.496 36.7227 107.664 37.9173 106.811 39.112C106.214 39.88 105.424 40.7547 104.443 41.736C103.504 42.7173 102.48 43.5707 101.371 44.296C100.304 45.0213 99.259 45.384 98.235 45.384ZM123.901 44.104C121.938 45.128 119.869 45.64 117.693 45.64C115.858 45.64 114.151 45.192 112.573 44.296C110.994 43.4 109.927 41.9707 109.373 40.008C109.117 39.112 108.989 38.1733 108.989 37.192C108.989 35.5707 109.266 33.9067 109.821 32.2C110.418 30.4507 111.186 28.8507 112.125 27.4C113.575 25.1387 115.41 23.2613 117.629 21.768C119.847 20.2747 122.301 19.528 124.989 19.528C126.994 19.528 128.551 20.04 129.661 21.064C130.77 22.088 131.325 23.2827 131.325 24.648C131.325 26.2693 130.77 27.6987 129.661 28.936C128.594 30.1307 127.186 31.048 125.437 31.688C124.583 31.9867 123.666 32.2213 122.685 32.392C121.746 32.52 120.85 32.584 119.997 32.584C118.247 32.584 116.903 32.3493 115.965 31.88C115.154 33.9707 114.749 35.8907 114.749 37.64C114.749 39.2187 115.111 40.52 115.837 41.544C116.562 42.5253 117.714 43.016 119.293 43.016C120.615 43.016 121.917 42.6533 123.197 41.928C124.519 41.2027 125.735 40.3067 126.845 39.24C127.997 38.1733 128.957 37.1493 129.725 36.168C130.322 35.4427 130.834 34.76 131.261 34.12C131.687 33.48 132.135 32.7547 132.605 31.944C133.074 31.0907 133.629 30.0453 134.269 28.808C134.439 28.5093 134.589 28.36 134.717 28.36C134.973 28.36 135.101 28.7013 135.101 29.384C135.101 29.768 135.037 30.1947 134.909 30.664C134.823 31.0907 134.653 31.5387 134.397 32.008C133.799 33.0747 133.074 34.248 132.221 35.528C131.41 36.7653 130.578 37.96 129.725 39.112C128.957 40.136 128.082 41.0747 127.101 41.928C126.119 42.7813 125.053 43.5067 123.901 44.104ZM118.077 30.472C118.29 30.6 118.525 30.6853 118.781 30.728C119.037 30.7707 119.293 30.792 119.549 30.792C120.402 30.792 121.255 30.6 122.109 30.216C122.962 29.7893 123.687 29.3627 124.285 28.936C125.266 28.2533 126.098 27.4427 126.781 26.504C127.463 25.5653 127.847 24.4987 127.933 23.304C127.975 22.792 127.847 22.3653 127.549 22.024C127.293 21.64 126.823 21.448 126.141 21.448C125.799 21.448 125.373 21.512 124.861 21.64C124.178 21.8107 123.495 22.1307 122.812 22.6C122.13 23.0693 121.469 23.624 120.829 24.264C120.615 24.4773 120.231 24.904 119.677 25.544C119.165 26.1413 118.674 26.824 118.205 27.592C117.735 28.3173 117.501 28.9573 117.501 29.512C117.501 29.9813 117.693 30.3013 118.077 30.472ZM142.486 45.448C141.121 45.448 140.139 44.872 139.542 43.72C139.073 42.696 138.838 41.48 138.838 40.072C138.838 38.4933 139.073 36.744 139.542 34.824C140.011 32.904 140.651 30.9413 141.462 28.936C141.761 28.2107 142.145 27.2933 142.614 26.184C143.126 25.0747 143.723 23.9867 144.406 22.92C143.809 23.432 143.105 23.8587 142.294 24.2C141.483 24.4987 140.694 24.648 139.926 24.648C139.329 24.648 138.838 24.5627 138.454 24.392C138.113 25.0747 137.558 26.184 136.79 27.72C136.022 29.256 134.998 31.0693 133.718 33.16C133.59 33.3733 133.462 33.3733 133.334 33.16C133.249 32.904 133.206 32.5627 133.206 32.136C133.206 31.7947 133.249 31.432 133.334 31.048C133.419 30.664 133.547 30.3013 133.718 29.96C134.145 29.1493 134.571 28.3173 134.998 27.464C135.425 26.568 135.809 25.7787 136.15 25.096C136.491 24.4133 136.683 23.9867 136.726 23.816C135.958 23.432 135.382 22.8987 134.998 22.216C134.614 21.4907 134.422 20.7867 134.422 20.104C134.422 19.4213 134.571 18.8027 134.87 18.248C135.211 17.6933 135.702 17.2667 136.342 16.968C136.726 16.84 137.089 16.776 137.43 16.776C138.369 16.776 139.137 17.0747 139.734 17.672C139.691 17.8427 139.649 18.0347 139.606 18.248C139.606 18.4187 139.606 18.6107 139.606 18.824C139.606 20.1467 140.139 21.128 141.206 21.768C142.273 22.408 143.425 22.6427 144.662 22.472C145.259 21.6187 145.942 20.872 146.71 20.232C147.478 19.592 148.31 19.272 149.206 19.272C149.675 19.272 150.337 19.2933 151.19 19.336C152.086 19.3787 152.726 19.3787 153.11 19.336C152.854 19.5067 152.555 19.848 152.214 20.36C151.873 20.872 151.553 21.4053 151.254 21.96C150.955 22.5147 150.721 22.9413 150.55 23.24C149.398 25.4587 148.331 27.6773 147.35 29.896C146.369 32.072 145.622 34.1627 145.11 36.168C145.025 36.552 144.939 36.9147 144.854 37.256C144.811 37.5547 144.79 37.8747 144.79 38.216C144.79 39.496 145.217 40.136 146.07 40.136C146.667 40.136 147.521 39.7093 148.63 38.856C149.611 38.0453 150.486 37.1493 151.254 36.168C152.107 35.0587 152.918 33.864 153.686 32.584C154.454 31.304 155.115 30.1307 155.67 29.064C155.883 28.7227 156.033 28.552 156.118 28.552C156.374 28.552 156.502 28.936 156.502 29.704C156.502 30.0027 156.459 30.3653 156.374 30.792C156.289 31.2187 156.139 31.624 155.926 32.008C155.286 33.0747 154.561 34.248 153.75 35.528C152.939 36.7653 152.107 37.9813 151.254 39.176C150.699 39.944 149.91 40.8187 148.886 41.8C147.905 42.7813 146.838 43.6347 145.686 44.36C144.577 45.0853 143.51 45.448 142.486 45.448Z" fill="white"/>
</svg>
