<svg width="14" height="17" viewBox="0 0 14 17" fill="none" xmlns="http://www.w3.org/2000/svg">
<g clip-path="url(#clip0_63_361)">
<path d="M0.503105 8.23013H12.1942L0.503105 0.908783V16.4969H12.1942L0.503105 4.80581V8.23013Z" fill="#DC143C" stroke="#003893"/>
<path d="M0.503105 8.23013H12.1942L0.503105 0.908783V16.4969H12.1942L0.503105 4.80581V8.23013Z" fill="#DC143C"/>
<path d="M1.0974 5.48448C1.28126 5.95223 1.60172 6.35375 2.01705 6.63676C2.43237 6.91977 2.9233 7.07113 3.42588 7.07113C3.92846 7.07113 4.41939 6.91977 4.83471 6.63676C5.25003 6.35375 5.5705 5.95223 5.75435 5.48448C5.75435 6.10203 5.50903 6.69429 5.07236 7.13096C4.63568 7.56763 4.04343 7.81296 3.42588 7.81296C2.80833 7.81296 2.21607 7.56763 1.7794 7.13096C1.34272 6.69429 1.0974 6.10203 1.0974 5.48448Z" fill="white"/>
<path d="M3.42588 7.65182C4.02433 7.65182 4.50946 7.16669 4.50946 6.56824C4.50946 5.9698 4.02433 5.48466 3.42588 5.48466C2.82744 5.48466 2.3423 5.9698 2.3423 6.56824C2.3423 7.16669 2.82744 7.65182 3.42588 7.65182Z" fill="white"/>
<path d="M3.84029 5.56797L3.71972 5.09101L3.42623 5.4834" fill="white"/>
<path d="M4.19154 5.80269L4.26267 5.31591L3.84136 5.56611" fill="white"/>
<path d="M4.42622 6.15397L4.67822 5.73146L4.19324 5.80139" fill="white"/>
<path d="M4.50861 6.56832L4.90311 6.27441L4.42829 6.15342" fill="white"/>
<path d="M4.42617 6.98265L4.90312 6.86208L4.51074 6.5686" fill="white"/>
<path d="M4.19144 7.33389L4.67823 7.40503L4.42802 6.98372" fill="white"/>
<path d="M3.01148 5.56797L3.13204 5.09101L3.42553 5.4834" fill="white"/>
<path d="M2.66022 5.80269L2.58909 5.31591L3.0104 5.56611" fill="white"/>
<path d="M2.42554 6.15397L2.17354 5.73146L2.65852 5.80139" fill="white"/>
<path d="M2.34316 6.56832L1.94865 6.27441L2.42347 6.15342" fill="white"/>
<path d="M2.42559 6.98265L1.94864 6.86208L2.34102 6.5686" fill="white"/>
<path d="M2.66032 7.33389L2.17354 7.40503L2.42374 6.98372" fill="white"/>
<path d="M3.42588 13.9503C4.30222 13.9503 5.01263 13.2399 5.01263 12.3635C5.01263 11.4872 4.30222 10.7768 3.42588 10.7768C2.54954 10.7768 1.83913 11.4872 1.83913 12.3635C1.83913 13.2399 2.54954 13.9503 3.42588 13.9503Z" fill="white"/>
<path d="M3.83685 13.8963L3.42588 14.8642L3.01491 13.8963" fill="white"/>
<path d="M3.01491 10.8307L3.42588 9.86279L3.83685 10.8307" fill="white"/>
<path d="M1.89307 12.7745L0.925155 12.3635L1.89307 11.9525" fill="white"/>
<path d="M4.95868 11.9525L5.9266 12.3635L4.95868 12.7745" fill="white"/>
<path d="M3.01538 13.8964L2.17552 14.5292L2.30357 13.4855" fill="white"/>
<path d="M3.83637 10.8306L4.67624 10.1978L4.54819 11.2416" fill="white"/>
<path d="M1.89295 11.953L1.26019 11.1132L2.30392 11.2412" fill="white"/>
<path d="M4.95881 12.774L5.59156 13.6139L4.54784 13.4858" fill="white"/>
<path d="M2.30391 13.4858L1.26019 13.6139L1.89294 12.774" fill="white"/>
<path d="M4.54783 11.2412L5.59156 11.1131L4.9588 11.953" fill="white"/>
<path d="M2.30356 11.2416L2.17551 10.1978L3.01538 10.8306" fill="white"/>
<path d="M4.54818 13.4855L4.67623 14.5292L3.83636 13.8964" fill="white"/>
</g>
<defs>
<clipPath id="clip0_63_361">
<rect width="13.9457" height="17" fill="white"/>
</clipPath>
</defs>
</svg>
