<svg width="28" height="28" viewBox="0 0 28 28" fill="none" xmlns="http://www.w3.org/2000/svg">
<path d="M11.6667 16.6339L12.1357 16.3333L12.3916 16.828L12.9477 16.8023L12.922 17.3588L13.4167 17.6143L13.1161 18.0833L13.4167 18.5523L12.922 18.8078L12.9477 19.3643L12.3916 19.3387L12.1357 19.8333L11.6667 19.5327L11.1977 19.8333L10.9422 19.3387L10.3857 19.3643L10.4113 18.8078L9.91666 18.5523L10.2173 18.0833L9.91666 17.6143L10.4113 17.3588L10.3857 16.8023L10.9422 16.828L11.1977 16.3333L11.6667 16.6339Z" fill="black" stroke="black" stroke-linecap="round" stroke-linejoin="round"/>
<path d="M11.6667 12.4444C12.0962 12.4444 12.4444 12.0962 12.4444 11.6667C12.4444 11.2371 12.0962 10.8889 11.6667 10.8889C11.2371 10.8889 10.8889 11.2371 10.8889 11.6667C10.8889 12.0962 11.2371 12.4444 11.6667 12.4444Z" fill="black" stroke="black" stroke-linecap="round" stroke-linejoin="round"/>
<path d="M13.2222 12.0555C13.0472 12.4444 12.5537 12.8333 11.6667 12.8333C10.7796 12.8333 10.2861 12.4444 10.1111 12.0555" stroke="black" stroke-width="1.5" stroke-linecap="round" stroke-linejoin="round"/>
<path d="M19.4444 21.3889H8.55556V6.61111L19.4444 14.3889H12.8333L19.4444 21.3889Z" fill="#D22F27"/>
<path d="M11.6667 16.6339L12.1357 16.3333L12.3916 16.828L12.9477 16.8023L12.922 17.3588L13.4167 17.6143L13.1161 18.0833L13.4167 18.5523L12.922 18.8078L12.9477 19.3643L12.3916 19.3387L12.1357 19.8333L11.6667 19.5327L11.1977 19.8333L10.9422 19.3387L10.3857 19.3643L10.4113 18.8078L9.91667 18.5523L10.2173 18.0833L9.91667 17.6143L10.4113 17.3588L10.3857 16.8023L10.9422 16.828L11.1977 16.3333L11.6667 16.6339Z" fill="white" stroke="white" stroke-linecap="round" stroke-linejoin="round"/>
<path d="M11.6667 12.4444C12.0962 12.4444 12.4444 12.0962 12.4444 11.6667C12.4444 11.2371 12.0962 10.8889 11.6667 10.8889C11.2371 10.8889 10.8889 11.2371 10.8889 11.6667C10.8889 12.0962 11.2371 12.4444 11.6667 12.4444Z" fill="white" stroke="white" stroke-linecap="round" stroke-linejoin="round"/>
<path d="M13.2222 12.0556C13.0472 12.4444 12.5537 12.8333 11.6667 12.8333C10.7796 12.8333 10.2861 12.4444 10.1111 12.0556" stroke="white" stroke-width="1.5" stroke-linecap="round" stroke-linejoin="round"/>
<path d="M19.4444 21.3889H8.55556V6.61111L19.4444 14.3889H12.8333L19.4444 21.3889Z" stroke="black" stroke-width="2" stroke-linecap="round" stroke-linejoin="round"/>
<path d="M19.4444 21.3889H8.55556V6.61111L19.4444 14.3889H12.8333L19.4444 21.3889Z" stroke="#1E50A0" stroke-width="2" stroke-linecap="round" stroke-linejoin="round"/>
</svg>
