<svg width="24" height="24" viewBox="0 0 24 24" fill="none" xmlns="http://www.w3.org/2000/svg">
<path d="M5 9.86C6.91985 14.0408 10.3312 17.3544 14.566 19.152L15.246 19.455C15.999 19.7903 16.8462 19.8491 17.6384 19.621C18.4305 19.3929 19.1167 18.8925 19.576 18.208L20.465 16.884C20.6041 16.6764 20.6604 16.4242 20.6229 16.1771C20.5853 15.93 20.4565 15.7059 20.262 15.549L17.25 13.119C17.1451 13.0344 17.0242 12.9719 16.8945 12.9353C16.7649 12.8986 16.6292 12.8885 16.4955 12.9056C16.3619 12.9227 16.233 12.9666 16.1168 13.0347C16.0005 13.1028 15.8992 13.1938 15.819 13.302L14.887 14.559C12.4946 13.3774 10.5581 11.4406 9.377 9.048L10.633 8.116C10.7412 8.03576 10.8322 7.93447 10.9003 7.81822C10.9684 7.70197 11.0123 7.57315 11.0294 7.43949C11.0465 7.30584 11.0364 7.17011 10.9997 7.04046C10.9631 6.9108 10.9006 6.7899 10.816 6.685L8.386 3.673C8.2291 3.47845 8.00503 3.34971 7.75794 3.31214C7.51084 3.27457 7.25864 3.33089 7.051 3.47L5.718 4.364C5.0294 4.82578 4.52709 5.51701 4.30055 6.31457C4.07401 7.11212 4.13796 7.96419 4.481 8.719L5 9.86Z" fill="#1A4596"/>
</svg>
