<svg width="14" height="10" viewBox="0 0 14 10" fill="none" xmlns="http://www.w3.org/2000/svg">
<path d="M5.09865 1.01052C5.12074 1.00079 5.14491 0.996778 5.16896 0.99884C5.19301 1.0009 5.21615 1.00897 5.23626 1.02232C5.25638 1.03566 5.27281 1.05384 5.28406 1.07519C5.29531 1.09655 5.30101 1.12039 5.30065 1.14452V2.29752C5.30065 2.43013 5.35332 2.5573 5.44709 2.65107C5.54086 2.74484 5.66804 2.79752 5.80065 2.79752C6.46765 2.79752 7.81365 2.80252 9.10065 3.61952C10.0846 4.24352 11.0906 5.37952 11.6956 7.49552C10.6756 6.51252 9.51064 5.97952 8.49064 5.69652C7.86369 5.52336 7.21937 5.42072 6.56965 5.39052C6.3037 5.37884 6.03731 5.38151 5.77165 5.39852H5.75865L5.75364 5.39952L5.80065 5.89752L5.75065 5.39952C5.62723 5.41192 5.51283 5.46976 5.42967 5.56179C5.3465 5.65382 5.30052 5.77348 5.30065 5.89752V7.05052C5.30065 7.15852 5.19065 7.22652 5.09865 7.18452L1.11465 4.25152C1.10112 4.24149 1.0871 4.23214 1.07265 4.22352C1.0509 4.21045 1.03291 4.19198 1.02042 4.1699C1.00793 4.14782 1.00136 4.12289 1.00136 4.09752C1.00136 4.07215 1.00793 4.04721 1.02042 4.02513C1.03291 4.00305 1.0509 3.98458 1.07265 3.97152C1.08711 3.9629 1.10113 3.95355 1.11465 3.94352L5.09865 1.01052ZM6.30065 6.38352C6.36865 6.38352 6.44365 6.38652 6.52364 6.38952C6.95764 6.40952 7.55764 6.47552 8.22364 6.66052C9.54964 7.02852 11.1196 7.86252 12.1636 9.74052C12.2201 9.84189 12.3101 9.92047 12.4181 9.96279C12.5261 10.0051 12.6455 10.0085 12.7558 9.97249C12.8661 9.93643 12.9604 9.86314 13.0226 9.76518C13.0848 9.66721 13.111 9.55066 13.0966 9.43552C12.6326 5.72552 11.2106 3.77352 9.63664 2.77552C8.39164 1.98552 7.10965 1.83352 6.30065 1.80452V1.14452C6.30074 0.938586 6.24524 0.736448 6.14001 0.559432C6.03479 0.382415 5.88373 0.237085 5.70278 0.138776C5.52183 0.0404668 5.3177 -0.00717605 5.11192 0.000874744C4.90615 0.00892554 4.70636 0.0723714 4.53365 0.184518L0.539645 3.12452C0.374525 3.22759 0.238351 3.37098 0.143943 3.5412C0.0495356 3.71142 0 3.90287 0 4.09752C0 4.29217 0.0495356 4.48361 0.143943 4.65383C0.238351 4.82405 0.374525 4.96745 0.539645 5.07052L4.53365 8.01052C4.70636 8.12266 4.90615 8.18611 5.11192 8.19416C5.3177 8.20221 5.52183 8.15457 5.70278 8.05626C5.88373 7.95795 6.03479 7.81262 6.14001 7.6356C6.24524 7.45859 6.30074 7.25645 6.30065 7.05052V6.38352Z" fill="#A8A8A8"/>
</svg>
