<svg width="14" height="17" viewBox="0 0 14 17" fill="none" xmlns="http://www.w3.org/2000/svg">
<path d="M8.8125 1.42857V4.57143C8.8125 4.77982 8.89528 4.97966 9.04263 5.12701C9.18998 5.27436 9.38983 5.35714 9.59821 5.35714H12.7411" stroke="#6B6B6B" stroke-width="2" stroke-linecap="round" stroke-linejoin="round"/>
<path d="M4.88382 6.14286H5.66954M4.88382 9.28572H9.59811M4.88382 12.4286H9.59811M11.1695 15.5714H3.3124C2.89563 15.5714 2.49593 15.4059 2.20123 15.1112C1.90653 14.8165 1.74097 14.4168 1.74097 14V3C1.74097 2.58323 1.90653 2.18353 2.20123 1.88883C2.49593 1.59413 2.89563 1.42857 3.3124 1.42857H8.8124L12.741 5.35715V14C12.741 14.4168 12.5754 14.8165 12.2807 15.1112C11.986 15.4059 11.5863 15.5714 11.1695 15.5714Z" stroke="#6B6B6B" stroke-width="1.6" stroke-linecap="round" stroke-linejoin="round"/>
</svg>
