<svg width="11" height="10" viewBox="0 0 11 10" fill="none" xmlns="http://www.w3.org/2000/svg">
<path d="M9.72005 5.5C9.61005 5.5 9.49505 5.465 9.38505 5.44C9.16229 5.39091 8.94338 5.32574 8.73005 5.245C8.49809 5.16061 8.24312 5.16499 8.0142 5.2573C7.78529 5.3496 7.59859 5.52331 7.49005 5.745L7.38005 5.97C6.89305 5.69908 6.44554 5.36261 6.05005 4.97C5.65743 4.5745 5.32096 4.12699 5.05005 3.63999L5.26005 3.49999C5.48173 3.39145 5.65544 3.20476 5.74775 2.97584C5.84005 2.74692 5.84444 2.49195 5.76005 2.25999C5.68066 2.04621 5.61552 1.82739 5.56505 1.605C5.54005 1.495 5.52005 1.38 5.50505 1.265C5.44433 0.912805 5.25986 0.593866 4.98486 0.365615C4.70986 0.137363 4.3624 0.0147995 4.00505 0.0199951H2.50505C2.28957 0.0179718 2.07618 0.0624018 1.87941 0.15026C1.68264 0.238119 1.50711 0.367343 1.36477 0.529136C1.22243 0.690929 1.11662 0.881492 1.05454 1.08785C0.992471 1.29421 0.97559 1.51152 1.00505 1.725C1.27142 3.81969 2.22806 5.76593 3.72388 7.25631C5.21969 8.74669 7.1694 9.69625 9.26505 9.955H9.45505C9.82376 9.95554 10.1797 9.82026 10.4551 9.575C10.6132 9.43352 10.7396 9.26008 10.8258 9.06615C10.912 8.87222 10.956 8.66221 10.9551 8.45V6.95C10.9489 6.60269 10.8225 6.26827 10.5972 6.00383C10.372 5.73938 10.062 5.56131 9.72005 5.5ZM9.97005 8.5C9.96996 8.57099 9.95475 8.64115 9.92544 8.70581C9.89613 8.77046 9.85338 8.82814 9.80005 8.875C9.74435 8.9235 9.67904 8.9597 9.60839 8.98124C9.53774 9.00278 9.46334 9.00917 9.39005 9C7.5175 8.7599 5.77817 7.90324 4.44641 6.56514C3.11465 5.22704 2.26626 3.48366 2.03505 1.61C2.02709 1.53675 2.03407 1.46266 2.05555 1.39219C2.07704 1.32172 2.11259 1.25634 2.16005 1.2C2.20691 1.14666 2.26458 1.10392 2.32924 1.0746C2.3939 1.04529 2.46406 1.03008 2.53505 1.03H4.03505C4.15132 1.02741 4.26486 1.06543 4.35612 1.13753C4.44738 1.20963 4.51066 1.31128 4.53505 1.425C4.55505 1.56166 4.58005 1.69666 4.61005 1.83C4.66781 2.09357 4.74468 2.35258 4.84005 2.605L4.14005 2.93C4.0802 2.95746 4.02636 2.99647 3.98163 3.04479C3.9369 3.09312 3.90215 3.1498 3.87939 3.21159C3.85662 3.27338 3.84629 3.33906 3.84897 3.40486C3.85166 3.47065 3.86732 3.53527 3.89505 3.59499C4.61465 5.13637 5.85367 6.3754 7.39505 7.095C7.51678 7.145 7.65332 7.145 7.77505 7.095C7.83741 7.07269 7.89471 7.03822 7.94364 6.99359C7.99256 6.94896 8.03213 6.89505 8.06005 6.835L8.37005 6.135C8.62853 6.22743 8.89234 6.30424 9.16005 6.365C9.29338 6.395 9.42838 6.42 9.56505 6.44C9.67877 6.46439 9.78042 6.52766 9.85252 6.61892C9.92461 6.71018 9.96264 6.82372 9.96005 6.94L9.97005 8.5Z" fill="#3873E9"/>
</svg>
