<svg width="19" height="11" viewBox="0 0 19 11" fill="none" xmlns="http://www.w3.org/2000/svg">
<path d="M17.8369 10.2278C17.5908 10.4738 17.257 10.6121 16.909 10.6121C16.5609 10.6121 16.2272 10.4738 15.981 10.2278L9.48416 3.7309L2.98728 10.2278C2.73974 10.4669 2.4082 10.5992 2.06407 10.5962C1.71993 10.5932 1.39074 10.4551 1.14739 10.2118C0.904047 9.96844 0.766014 9.63925 0.763023 9.29512C0.760033 8.95098 0.892325 8.61944 1.13141 8.3719L8.55622 0.947088C8.80235 0.701033 9.13613 0.562806 9.48416 0.562806C9.83219 0.562806 10.166 0.701033 10.4121 0.947089L17.8369 8.3719C18.083 8.61803 18.2212 8.95181 18.2212 9.29984C18.2212 9.64787 18.083 9.98165 17.8369 10.2278Z" fill="#A8A8A8"/>
</svg>
