<svg width="24" height="25" viewBox="0 0 24 25" fill="none" xmlns="http://www.w3.org/2000/svg">
<path d="M18.8333 8.72104C19.6731 8.72104 20.4786 9.05467 21.0725 9.64853C21.6663 10.2424 21.9999 11.0479 21.9999 11.8877C21.9999 12.7276 21.6663 13.533 21.0725 14.1269C20.4786 14.7207 19.6731 15.0544 18.8333 15.0544M10.3888 8.72104V20.3322C10.3888 20.6121 10.2776 20.8806 10.0797 21.0785C9.88171 21.2765 9.61323 21.3877 9.33328 21.3877H8.27772C7.99777 21.3877 7.72929 21.2765 7.53133 21.0785C7.33338 20.8806 7.22217 20.6121 7.22217 20.3322V15.0544" stroke="#3873E9" stroke-width="1.8" stroke-linecap="round" stroke-linejoin="round"/>
<path d="M12.5 8.72103L17.2753 4.74159C17.4141 4.62602 17.5829 4.55238 17.762 4.52932C17.9411 4.50626 18.1231 4.53473 18.2866 4.61139C18.4501 4.68805 18.5884 4.80972 18.6852 4.96215C18.782 5.11458 18.8334 5.29145 18.8333 5.47203V18.3034C18.8334 18.484 18.782 18.6608 18.6852 18.8133C18.5884 18.9657 18.4501 19.0874 18.2866 19.164C18.1231 19.2407 17.9411 19.2691 17.762 19.2461C17.5829 19.223 17.4141 19.1494 17.2753 19.0338L12.5 15.0544H4.05556C3.7756 15.0544 3.50712 14.9432 3.30917 14.7452C3.11121 14.5472 3 14.2788 3 13.9988V9.77659C3 9.49664 3.11121 9.22815 3.30917 9.0302C3.50712 8.83224 3.7756 8.72103 4.05556 8.72103H12.5Z" stroke="#3873E9" stroke-width="1.8" stroke-linecap="round" stroke-linejoin="round"/>
</svg>
