<svg width="20" height="21" viewBox="0 0 20 21" fill="none" xmlns="http://www.w3.org/2000/svg">
<path d="M10 0.5C15.523 0.5 20 4.977 20 10.5C20 16.023 15.523 20.5 10 20.5C8.17818 20.5028 6.39054 20.0054 4.83201 19.062L1.80001 19.954C1.62593 20.0052 1.44126 20.0086 1.26543 19.9638C1.08959 19.9189 0.92908 19.8276 0.800768 19.6992C0.672457 19.5709 0.581083 19.4104 0.536253 19.2346C0.491424 19.0587 0.494794 18.8741 0.546009 18.7L1.43801 15.668C0.494968 14.1093 -0.00241404 12.3218 8.80954e-06 10.5C8.80954e-06 4.977 4.47701 0.5 10 0.5ZM10 2.5C8.56764 2.49974 7.16147 2.88406 5.92834 3.61281C4.69521 4.34157 3.68036 5.38804 2.98977 6.64294C2.29918 7.89784 1.95817 9.31514 2.00237 10.7468C2.04656 12.1785 2.47433 13.5721 3.24101 14.782C3.46801 15.139 3.54601 15.589 3.41801 16.022L2.97701 17.523L4.47801 17.082C4.91101 16.954 5.36101 17.032 5.71801 17.259C6.76634 17.9228 7.9547 18.3336 9.18915 18.459C10.4236 18.5844 11.6703 18.421 12.8307 17.9816C13.9911 17.5422 15.0334 16.8389 15.8752 15.9273C16.717 15.0157 17.3352 13.9208 17.6809 12.7291C18.0266 11.5374 18.0904 10.2817 17.8673 9.06111C17.6441 7.84053 17.14 6.6886 16.395 5.69638C15.65 4.70415 14.6843 3.89883 13.5744 3.34408C12.4645 2.78933 11.2408 2.50036 10 2.5ZM6.50001 9C6.89783 9 7.27937 9.15804 7.56067 9.43934C7.84197 9.72064 8.00001 10.1022 8.00001 10.5C8.00001 10.8978 7.84197 11.2794 7.56067 11.5607C7.27937 11.842 6.89783 12 6.50001 12C6.10218 12 5.72065 11.842 5.43935 11.5607C5.15804 11.2794 5.00001 10.8978 5.00001 10.5C5.00001 10.1022 5.15804 9.72064 5.43935 9.43934C5.72065 9.15804 6.10218 9 6.50001 9ZM13.5 9C13.8978 9 14.2794 9.15804 14.5607 9.43934C14.842 9.72064 15 10.1022 15 10.5C15 10.8978 14.842 11.2794 14.5607 11.5607C14.2794 11.842 13.8978 12 13.5 12C13.1022 12 12.7207 11.842 12.4394 11.5607C12.158 11.2794 12 10.8978 12 10.5C12 10.1022 12.158 9.72064 12.4394 9.43934C12.7207 9.15804 13.1022 9 13.5 9Z" fill="#3873E9"/>
</svg>
