<svg width="18" height="21" viewBox="0 0 18 21" fill="none" xmlns="http://www.w3.org/2000/svg">
<path d="M9 2.5C7.93913 2.5 6.92172 2.92143 6.17157 3.67157C5.42143 4.42172 5 5.43913 5 6.5C5 7.56087 5.42143 8.57828 6.17157 9.32843C6.92172 10.0786 7.93913 10.5 9 10.5C10.0609 10.5 11.0783 10.0786 11.8284 9.32843C12.5786 8.57828 13 7.56087 13 6.5C13 5.43913 12.5786 4.42172 11.8284 3.67157C11.0783 2.92143 10.0609 2.5 9 2.5ZM3 6.5C3 4.9087 3.63214 3.38258 4.75736 2.25736C5.88258 1.13214 7.4087 0.5 9 0.5C10.5913 0.5 12.1174 1.13214 13.2426 2.25736C14.3679 3.38258 15 4.9087 15 6.5C15 8.0913 14.3679 9.61742 13.2426 10.7426C12.1174 11.8679 10.5913 12.5 9 12.5C7.4087 12.5 5.88258 11.8679 4.75736 10.7426C3.63214 9.61742 3 8.0913 3 6.5ZM5 16.5C4.20435 16.5 3.44129 16.8161 2.87868 17.3787C2.31607 17.9413 2 18.7044 2 19.5C2 19.7652 1.89464 20.0196 1.70711 20.2071C1.51957 20.3946 1.26522 20.5 1 20.5C0.734784 20.5 0.48043 20.3946 0.292893 20.2071C0.105357 20.0196 0 19.7652 0 19.5C0 18.1739 0.526784 16.9021 1.46447 15.9645C2.40215 15.0268 3.67392 14.5 5 14.5H13C14.3261 14.5 15.5979 15.0268 16.5355 15.9645C17.4732 16.9021 18 18.1739 18 19.5C18 19.7652 17.8946 20.0196 17.7071 20.2071C17.5196 20.3946 17.2652 20.5 17 20.5C16.7348 20.5 16.4804 20.3946 16.2929 20.2071C16.1054 20.0196 16 19.7652 16 19.5C16 18.7044 15.6839 17.9413 15.1213 17.3787C14.5587 16.8161 13.7956 16.5 13 16.5H5Z" fill="#3873E9"/>
</svg>
