<svg width="18" height="18" viewBox="0 0 18 18" fill="none" xmlns="http://www.w3.org/2000/svg">
<path d="M9.00001 0.25C13.8326 0.25 17.75 4.16738 17.75 9C17.75 13.8326 13.8326 17.75 9.00001 17.75C7.40591 17.7525 5.84172 17.3172 4.47801 16.4918L1.82501 17.2723C1.67269 17.3171 1.5111 17.32 1.35725 17.2808C1.20339 17.2416 1.06294 17.1616 0.950672 17.0493C0.838399 16.9371 0.758448 16.7966 0.719222 16.6428C0.679996 16.4889 0.682944 16.3273 0.727758 16.175L1.50826 13.522C0.683097 12.1581 0.247888 10.5941 0.250008 9C0.250008 4.16738 4.16738 0.25 9.00001 0.25ZM9.00001 2C7.74668 1.99977 6.51628 2.33605 5.4373 2.97371C4.35831 3.61138 3.47032 4.52704 2.86605 5.62507C2.26178 6.72311 1.9634 7.96325 2.00207 9.21597C2.04074 10.4687 2.41504 11.6881 3.08588 12.7467C3.28451 13.0591 3.35276 13.4529 3.24076 13.8317L2.85488 15.1451L4.16826 14.7593C4.54713 14.6473 4.94088 14.7155 5.25326 14.9141C6.17055 15.4949 7.21036 15.8544 8.29051 15.9642C9.37066 16.0739 10.4615 15.9309 11.4769 15.5464C12.4922 15.1619 13.4042 14.5465 14.1408 13.7489C14.8773 12.9512 15.4183 11.9932 15.7208 10.9505C16.0233 9.90776 16.0791 8.80897 15.8838 7.74097C15.6886 6.67297 15.2475 5.66503 14.5956 4.79683C13.9437 3.92863 13.0988 3.22398 12.1276 2.73857C11.1565 2.25316 10.0857 2.00031 9.00001 2ZM5.93751 7.6875C6.2856 7.6875 6.61944 7.82578 6.86559 8.07192C7.11173 8.31806 7.25001 8.6519 7.25001 9C7.25001 9.3481 7.11173 9.68194 6.86559 9.92808C6.61944 10.1742 6.2856 10.3125 5.93751 10.3125C5.58941 10.3125 5.25557 10.1742 5.00943 9.92808C4.76329 9.68194 4.62501 9.3481 4.62501 9C4.62501 8.6519 4.76329 8.31806 5.00943 8.07192C5.25557 7.82578 5.58941 7.6875 5.93751 7.6875ZM12.0625 7.6875C12.4106 7.6875 12.7444 7.82578 12.9906 8.07192C13.2367 8.31806 13.375 8.6519 13.375 9C13.375 9.3481 13.2367 9.68194 12.9906 9.92808C12.7444 10.1742 12.4106 10.3125 12.0625 10.3125C11.7144 10.3125 11.3806 10.1742 11.1344 9.92808C10.8883 9.68194 10.75 9.3481 10.75 9C10.75 8.6519 10.8883 8.31806 11.1344 8.07192C11.3806 7.82578 11.7144 7.6875 12.0625 7.6875Z" fill="#A8A8A8"/>
</svg>
