<svg width="18" height="20" viewBox="0 0 18 20" fill="none" xmlns="http://www.w3.org/2000/svg">
<path d="M18 18.5C18 18.7652 17.8946 19.0196 17.7071 19.2071C17.5196 19.3946 17.2652 19.5 17 19.5H1C0.734784 19.5 0.48043 19.3946 0.292893 19.2071C0.105357 19.0196 2.4071e-07 18.7652 2.4071e-07 18.5V7.98901C-0.000105484 7.83662 0.0346172 7.68622 0.101516 7.54931C0.168415 7.41239 0.26572 7.29257 0.386 7.19901L8.386 0.977006C8.56154 0.840451 8.7776 0.766312 9 0.766312C9.2224 0.766312 9.43846 0.840451 9.614 0.977006L17.614 7.19901C17.7343 7.29257 17.8316 7.41239 17.8985 7.54931C17.9654 7.68622 18.0001 7.83662 18 7.98901V18.5ZM16 17.5V8.47801L9 3.03301L2 8.47801V17.5H16Z" fill="#A8A8A8"/>
</svg>
