<svg width="16" height="18" viewBox="0 0 16 18" fill="none" xmlns="http://www.w3.org/2000/svg">
<path d="M8 2C7.07174 2 6.1815 2.36875 5.52513 3.02513C4.86875 3.6815 4.5 4.57174 4.5 5.5C4.5 6.42826 4.86875 7.3185 5.52513 7.97487C6.1815 8.63125 7.07174 9 8 9C8.92826 9 9.8185 8.63125 10.4749 7.97487C11.1313 7.3185 11.5 6.42826 11.5 5.5C11.5 4.57174 11.1313 3.6815 10.4749 3.02513C9.8185 2.36875 8.92826 2 8 2ZM2.75 5.5C2.75 4.10761 3.30312 2.77226 4.28769 1.78769C5.27226 0.803123 6.60761 0.25 8 0.25C9.39239 0.25 10.7277 0.803123 11.7123 1.78769C12.6969 2.77226 13.25 4.10761 13.25 5.5C13.25 6.89239 12.6969 8.22774 11.7123 9.21231C10.7277 10.1969 9.39239 10.75 8 10.75C6.60761 10.75 5.27226 10.1969 4.28769 9.21231C3.30312 8.22774 2.75 6.89239 2.75 5.5ZM4.5 14.25C3.80381 14.25 3.13613 14.5266 2.64384 15.0188C2.15156 15.5111 1.875 16.1788 1.875 16.875C1.875 17.1071 1.78281 17.3296 1.61872 17.4937C1.45462 17.6578 1.23206 17.75 1 17.75C0.767936 17.75 0.545376 17.6578 0.381282 17.4937C0.217187 17.3296 0.125 17.1071 0.125 16.875C0.125 15.7147 0.585936 14.6019 1.40641 13.7814C2.22688 12.9609 3.33968 12.5 4.5 12.5H11.5C12.6603 12.5 13.7731 12.9609 14.5936 13.7814C15.4141 14.6019 15.875 15.7147 15.875 16.875C15.875 17.1071 15.7828 17.3296 15.6187 17.4937C15.4546 17.6578 15.2321 17.75 15 17.75C14.7679 17.75 14.5454 17.6578 14.3813 17.4937C14.2172 17.3296 14.125 17.1071 14.125 16.875C14.125 16.1788 13.8484 15.5111 13.3562 15.0188C12.8639 14.5266 12.1962 14.25 11.5 14.25H4.5Z" fill="#A8A8A8"/>
</svg>
